<svg xmlns="http://www.w3.org/2000/svg" width="120" height="25" fill="none"><g fill="#fff" clip-path="url(#a)"><path d="M119.787 18.5621v2.9696h-2.491c-2.658-.0836-4.078-1.519-4.078-4.2152v-6.7823h-1.739V7.92915h1.739V5.0127h3.676v2.88607h2.81v2.59743h-2.81v6.4557c0 .8735.174 1.5722 1.519 1.5722l1.374.038ZM96.8282 14.7569v-.1975c-.0398-.8735.0932-1.7463.3914-2.5683.2982-.822.7557-1.5771 1.3462-2.22198.5906-.64488 1.3026-1.16687 2.0952-1.53606.793-.36919 1.65-.57831 2.524-.61538h.532c3.471 0 6.516 2.02025 6.516 6.83542v1.0253h-9.645c.098 2.2178 1.298 3.4709 3.319 3.4709 1.739 0 2.552-.7595 2.787-1.8683h3.471c-.425 2.8936-2.734 4.5038-6.387 4.5038-4.0106-.0304-6.9498-2.5671-6.9498-6.8279Zm9.7898-1.6025c-.129-2.0203-1.147-2.9924-2.916-2.9924-1.77 0-2.788 1.0937-3.038 2.9924h5.954ZM81.8204 14.7569v-.1975c-.0398-.8723.0927-1.7438.3899-2.5649.2973-.8211.7534-1.5755 1.3424-2.22019.5889-.64469 1.2992-1.16698 2.0901-1.53703.7909-.37005 1.647-.58059 2.5194-.6196h.5316c3.4709 0 6.524 2.02025 6.524 6.83542v1.0253h-9.6379c.0987 2.2178 1.2987 3.4709 3.319 3.4709 1.7392 0 2.5519-.7595 2.7873-1.8683h3.4709c-.4329 2.8936-2.7418 4.5038-6.3949 4.5038-4.0026-.0304-6.9418-2.5671-6.9418-6.8279Zm9.7899-1.6025c-.1292-2.0203-1.1469-2.9924-2.9165-2.9924s-2.757 1.124-3.038 2.9848l5.9545.0076ZM60.7598 7.89868h3.8886l2.3772 9.00762 2.605-9.00762h3.038l2.3545 9.00762 2.5063-9.00762h3.562L76.8686 21.281h-3.6455l-2.2785-8.4-2.438 8.4h-3.6911L60.7598 7.89868ZM48.4023 17.0735h3.4709c.1595 1.2076.7595 1.8987 2.3545 1.8987 1.4278 0 2.0886-.5392 2.0886-1.4582 0-.919-.7595-1.3063-2.7038-1.5798-3.5621-.5392-4.9367-1.5645-4.9367-4.1772 0-2.78732 2.5519-4.1696 5.3164-4.1696 2.9696 0 5.2101 1.07848 5.5291 4.1544H56.096c-.0218-.2378-.0906-.4689-.2023-.6799-.1117-.2111-.2641-.398-.4484-.5498-.1843-.1518-.3969-.2656-.6254-.3348-.2286-.0692-.4686-.0925-.7062-.0684h-.1139c-1.2 0-1.8987.562-1.8987 1.3823s.6455 1.1772 2.605 1.4582c3.3266.5013 5.1874 1.3443 5.1874 4.2076s-2.1038 4.3975-5.6279 4.3975c-3.524 0-5.7645-1.5874-5.8633-4.481ZM33.6533 7.8987h3.676v2.119c.4143-.77779 1.0432-1.42026 1.812-1.85108.7687-.43083 1.645-.6319 2.5247-.57932 2.605 0 4.4962 1.58735 4.4962 5.2101v8.514h-3.6304v-7.9823c0-1.8152-.7063-2.681-2.3468-2.681-.3468-.0302-.6961.0084-1.0278.1135-.3318.1052-.6396.2748-.9056.4992-.2661.2244-.4852.4992-.6447.8085-.1596.3093-.2565.6471-.2852.994-.019.1614-.019.3246 0 .486v7.7317h-3.6684V7.8987ZM26.5598 4.53425c-.0133-.3665.0824-.72872.2751-1.04079.1926-.31208.4736-.55996.8072-.71229.3336-.15232.7049-.20223 1.0669-.1434.362.05882.6984.22374.9666.47386.2683.25013.4562.57422.5401.93123.084.35702.0601.73091-.0686 1.07434-.1287.34343-.3564.64095-.6543.8549-.2979.21395-.6525.3347-1.0191.34696h-.0683c-.2275.0144-.4556-.01626-.6712-.09022-.2157-.07395-.4146-.18976-.5853-.34076-.1708-.15101-.31-.33424-.4098-.53919-.0998-.20496-.1581-.42759-.1717-.65514-.0063-.05292-.0088-.10622-.0076-.1595Zm0 3.36456h3.7139V21.2811H26.575l-.0152-13.38229ZM12.5625 2.99243h11.7418v3.24304h-7.595v4.83793h6.0152v3.1216h-6.0228v7.086h-4.1392V2.99243ZM5.47595 8.97722c0 1.14688 0 2.54428-1.57975 3.11388 1.61773.5545 1.57975 1.7317 1.57975 2.9621v4.5569c0 .8659.34937 1.3899.97215 1.519.13685.0462.28102.0668.42532.0608h1.51899v3.0379H5.88608c-2.67342 0-4.14684-1.5189-4.14684-4.3367v-5.3924c-.01896-.2768-.14103-.5365-.3421-.7277-.20107-.1912-.466534-.3001-.743975-.3052H0V10.8h.653165c.282976-.0037.553655-.1163.755875-.3142.20222-.198.32047-.4663.3302-.74909V4.26835C1.73924 1.4962 3.18228 0 5.88608 0h2.52911v2.99241H6.8962c-.14447.00041-.28798.02348-.42531.06835-.62279.15949-.97216.67595-.97216 1.51899l-.02278 4.39747Z"/></g><defs><clipPath id="a"><path fill="#fff" d="M0 0h120v24.3038H0z"/></clipPath></defs></svg>