<svg xmlns="http://www.w3.org/2000/svg" width="122" height="25" fill="none"><g fill="#063255" clip-path="url(#a)"><path d="M121.784 18.8714v3.0191h-2.532c-2.703-.0849-4.147-1.5443-4.147-4.2854v-6.8954h-1.768V8.06125h1.768V5.09619h3.737v2.93418h2.857v2.64073h-2.857v6.5633c0 .888.178 1.5984 1.545 1.5984l1.397.0386ZM98.4416 15.0029v-.2008c-.0405-.8881.0948-1.7754.3979-2.6111.3032-.8358.7683-1.6034 1.3685-2.25907.601-.65563 1.324-1.18632 2.13-1.56166.806-.37534 1.678-.58795 2.566-.62564h.541c3.529 0 6.625 2.05392 6.625 6.94937v1.0424h-9.806c.1 2.2547 1.32 3.5287 3.374 3.5287 1.768 0 2.594-.7721 2.834-1.8995h3.529c-.433 2.9419-2.78 4.5789-6.494 4.5789-4.077-.0309-7.0654-2.6099-7.0654-6.9416Zm9.9534-1.6293c-.132-2.0539-1.166-3.0423-2.965-3.0423-1.8 0-2.834 1.1119-3.089 3.0423h6.054ZM83.1838 15.0029v-.2008c-.0405-.8868.0942-1.773.3964-2.6077.3022-.8348.766-1.6018 1.3647-2.2572.5988-.65543 1.3209-1.18642 2.125-1.56264.8041-.37621 1.6745-.59027 2.5613-.62993h.5405c3.5288 0 6.6328 2.05392 6.6328 6.94937v1.0424h-9.7986c.1004 2.2547 1.3204 3.5287 3.3743 3.5287 1.7683 0 2.5945-.7721 2.8338-1.8995h3.5288c-.4402 2.9419-2.7875 4.5789-6.5016 4.5789-4.0692-.0309-7.0574-2.6099-7.0574-6.9416Zm9.953-1.6293c-.1313-2.0539-1.1659-3.0423-2.9651-3.0423-1.7991 0-2.8029 1.1428-3.0886 3.0346l6.0537.0077ZM61.7725 8.03027h3.9534l2.4168 9.15773 2.6485-9.15773h3.0886l2.3937 9.15773 2.5481-9.15773h3.6214L78.1498 21.6356h-3.7063l-2.3165-8.54-2.4786 8.54h-3.7526L61.7725 8.03027ZM49.209 17.358h3.5287c.1622 1.2278.7722 1.9304 2.3937 1.9304 1.4516 0 2.1234-.5482 2.1234-1.4825 0-.9343-.7721-1.3281-2.7488-1.6061-3.6214-.5482-5.019-1.5906-5.019-4.2468 0-2.83382 2.5944-4.23913 5.405-4.23913 3.0191 0 5.297 1.09645 5.6213 4.22363h-3.4824c-.0222-.2417-.0921-.4767-.2057-.6913-.1135-.2145-.2685-.4045-.4559-.5589-.1874-.1543-.4035-.27-.6358-.3404-.2324-.0703-.4764-.094-.7179-.0695h-.1159c-1.22 0-1.9303.5714-1.9303 1.4053 0 .834.6563 1.1969 2.6484 1.4826 3.3821.5096 5.2738 1.3667 5.2738 4.2777 0 2.911-2.1388 4.4707-5.7216 4.4707-3.5828 0-5.8606-1.6138-5.961-4.5557ZM34.2139 8.03049h3.7372v2.15431c.4212-.79074 1.0606-1.44392 1.8422-1.88192.7815-.43801 1.6724-.64243 2.5668-.58898 2.6484 0 4.5711 1.6138 4.5711 5.297v8.6558h-3.6909v-8.1153c0-1.8455-.7181-2.7257-2.3859-2.7257-.3525-.0307-.7077.0085-1.045.1154-.3373.1069-.6501.2794-.9206.5076-.2705.2281-.4933.5074-.6555.8219-.1622.3145-.2608.6579-.2899 1.0105-.0193.1642-.0193.33 0 .4942v7.8605h-3.7295V8.03049ZM27.0022 4.60972c-.0135-.37262.0838-.74087.2797-1.05815.1958-.31727.4814-.56929.8206-.72415s.7167-.2056 1.0847-.1458c.3681.05981.7101.22747.9828.48177.2727.25429.4638.58378.5491.94675.0853.36296.061.74309-.0698 1.09224-.1309.34915-.3623.65163-.6652.86915-.3028.21751-.6634.34027-1.0361.35275h-.0695c-.2312.01463-.4631-.01654-.6824-.09173-.2192-.07519-.4214-.19292-.595-.34644-.1736-.15353-.3152-.33981-.4166-.54818-.1015-.20837-.1608-.43472-.1746-.66606-.0064-.0538-.009-.10799-.0077-.16215Zm0 3.42063h3.7758V21.6357h-3.7603l-.0155-13.60535ZM12.7715 3.04224H24.709v3.29708h-7.7216v4.91858h6.1155v3.1736h-6.1232v7.2042h-4.2082V3.04224ZM5.56722 9.12683c0 1.16597 0 2.58667-1.60608 3.16587 1.64468.5636 1.60608 1.7605 1.60608 3.0114v4.6329c0 .8802.35519 1.413.98835 1.5443.13913.0469.2857.0678.4324.0617h1.54431v3.0886h-2.5481c-2.71798 0-4.21595-1.5443-4.21595-4.4089v-5.4823c-.01928-.2815-.14338-.5455-.3478-.7399-.20443-.1944-.474314-.3051-.756379-.3102H0V10.98h.664051c.287693-.0038.562879-.1182.768469-.3195.2056-.2013.32581-.474.33571-.76151v-5.5595C1.76823 1.52114 3.23532 0 5.98418 0h2.57126v3.04228h-1.5443c-.14688.00042-.29279.02387-.43241.06949-.63316.16215-.98835.68722-.98835 1.54431l-.02316 4.47075Z"/></g><defs><clipPath id="a"><path fill="#fff" d="M0 0h122v24.7089H0z"/></clipPath></defs></svg>