<svg xmlns="http://www.w3.org/2000/svg" width="22" height="20" fill="none"><g stroke="#fff" stroke-linecap="round" stroke-linejoin="round" stroke-width="2" clip-path="url(#a)"><path d="M15.5562 1.66675H6.66327c-2.45572 0-4.44647 1.86548-4.44647 4.16667v8.33328c0 2.3012 1.99075 4.1667 4.44647 4.1667h8.89293c2.4557 0 4.4465-1.8655 4.4465-4.1667V5.83342c0-2.30119-1.9908-4.16667-4.4465-4.16667Z"/><path d="M14.6667 9.47501c.1098.69349-.0167 1.40189-.3613 2.02419-.3446.6223-.8898 1.127-1.5581 1.4422-.6683.3152-1.4257.4249-2.1644.3135-.73873-.1113-1.42114-.4382-1.9502-.9339-.52906-.4958-.87783-1.1353-.9967-1.8275-.11887-.6922-.00178-1.40192.33461-2.02818.33638-.62627.87494-1.1372 1.53906-1.46011.66413-.32292 1.42003-.44138 2.16013-.33854.7549.10491 1.4538.43456 1.9935.94026.5397.5057.8915 1.16064 1.0034 1.86808ZM16.001 5.41675h.0096"/></g><defs><clipPath id="a"><path fill="#fff" d="M.438477 0h21.3431v20H.438477z"/></clipPath></defs></svg>