<svg xmlns="http://www.w3.org/2000/svg" width="22" height="20" fill="none"><path fill="#fff" d="M21.1114 2.50008c-.8516.5629-1.7945.99342-2.7924 1.275-.5356-.57708-1.2474-.98609-2.0392-1.17173-.7917-.18564-1.6252-.13894-2.3877.13377-.7625.27272-1.4172.75829-1.8756 1.39106-.4584.63276-.6983 1.38218-.6874 2.1469v.83333c-1.5628.03798-3.11138-.28682-4.50781-.94546-1.39643-.65864-2.59736-1.63067-3.49583-2.82954 0 0-3.557174 7.49999 4.44648 10.83329-1.83148 1.165-4.01325 1.7492-6.22506 1.6667 8.00364 4.1667 17.78592 0 17.78592-9.58332-.0009-.23212-.0247-.46367-.0712-.69167.9076-.83875 1.5481-1.89774 1.8498-3.05833Z"/></svg>