<svg xmlns="http://www.w3.org/2000/svg" width="22" height="20" fill="none"><path fill="#fff" fill-rule="evenodd" d="M19.6396 4.29942c.3029.29264.5181.65501.6237 1.0505.2821 1.46558.4191 2.95246.4091 4.44166.0056 1.46692-.1313 2.93132-.4091 4.37502-.1056.3955-.3208.7578-.6237 1.0505-.3029.2926-.6829.5052-1.1015.6162-1.5296.3833-7.6479.3833-7.6479.3833s-6.11838 0-7.64796-.3833c-.41013-.1052-.78438-.3077-1.08659-.588-.30222-.2803-.52218-.6288-.63864-1.012-.28212-1.4656-.41906-2.9525-.40908-4.44172-.00779-1.47807.12914-2.9537.40908-4.40833.10563-.39549.32078-.75785.6237-1.05049.30292-.29264.68289-.50519 1.10153-.61617 1.52958-.38334 7.64796-.38334 7.64796-.38334s6.1183 0 7.6479.35c.4186.11099.7986.32354 1.1015.61617Zm-5.6365 5.49219L8.88962 12.5166V7.06661l5.11348 2.725Z" clip-rule="evenodd"/></svg>